<svg width="320" height="101" viewBox="0 0 320 101" fill="none" xmlns="http://www.w3.org/2000/svg">
<path d="M13.9978 48.4834L0.54364 55.7046L53.017 85.4873L66.0965 78.1304L13.9978 48.4834Z" fill="url(#paint0_linear_149_113)"/>
<path d="M26.9806 70.6765L13.9268 63.2292V63.2421L0.937696 55.8465V70.6571H0.957073L53.0299 100.304H53.0493V85.4935L26.9806 70.6765Z" fill="#1A3A96"/>
<path d="M66.1094 78.1301L53.0298 85.4934V100.304L66.1094 92.9407V78.1301Z" fill="#72EA9A"/>
<path d="M52.6488 26.0641L65.7219 33.4016L13.6103 63.0551L0.54364 55.7112L52.6488 26.0641Z" fill="url(#paint1_linear_149_113)"/>
<path d="M13.6102 63.0678V77.8654L65.7025 48.2119H65.7219V33.4013L13.6102 63.0678Z" fill="#1A3A96"/>
<path d="M0.54364 55.7108L13.6038 63.0548V77.9106L0.54364 70.5214V55.7108Z" fill="url(#paint2_linear_149_113)"/>
<path d="M52.6423 0.983643L65.7219 8.34696L13.6103 37.994L0.54364 30.6307L52.6423 0.983643Z" fill="url(#paint3_linear_149_113)"/>
<path d="M65.7025 8.34703L13.6102 37.9941V52.8047L65.7025 23.1576H65.7219V8.34703H65.7025Z" fill="#1A3A96"/>
<path d="M0.54364 30.6307L13.5974 37.994V52.8046L0.54364 45.4413V30.6307Z" fill="#72EA9A"/>
<path d="M115.285 55.3287H111.317L104.186 71.6056L96.5589 55.3287H92.4975L102.822 77.0312H105.488L115.285 55.3287Z" fill="black"/>
<path d="M117.352 77.0312H120.887V60.9094H117.352V77.0312ZM117.042 56.2899C117.042 56.8479 117.228 57.313 117.6 57.685C117.972 58.057 118.499 58.2121 119.12 58.2121C119.678 58.2121 120.174 58.057 120.577 57.685C120.949 57.313 121.166 56.8479 121.166 56.2899C121.166 55.7938 120.949 55.3597 120.577 54.9877C120.174 54.6157 119.678 54.4296 119.12 54.4296C118.53 54.4296 118.034 54.6157 117.631 54.9567C117.228 55.3287 117.042 55.7628 117.042 56.2899Z" fill="black"/>
<path d="M124.77 77.0312H128.305V66.1179C128.491 65.4049 128.801 64.8468 129.235 64.4438C129.669 64.0717 130.196 63.8547 130.785 63.8547C131.529 63.8547 132.087 64.1027 132.397 64.5678L134.412 61.9945C133.668 61.0644 132.583 60.5683 131.219 60.5683C130.599 60.5683 130.01 60.7233 129.452 60.9714C128.894 61.2504 128.491 61.5914 128.305 61.9945V60.9094H124.77V77.0312Z" fill="black"/>
<path d="M134.793 64.1957H137.583V71.4195C137.583 73.3107 138.017 74.7369 138.947 75.729C139.847 76.7211 141.087 77.2172 142.668 77.2172C143.722 77.2172 144.714 76.9692 145.582 76.4731C146.45 75.977 147.132 75.357 147.597 74.5509L145.489 72.5667C144.776 73.4968 144.001 73.9308 143.195 73.9308C142.451 73.9308 141.893 73.6828 141.583 73.1557C141.273 72.6287 141.118 71.7296 141.118 70.4274V64.1957H146.326V60.9094H141.118V57.592H137.583V60.9094H134.793V64.1957Z" fill="black"/>
<path d="M164.094 60.8164H160.559V71.2335C159.629 73.0937 158.234 74.0238 156.405 74.0238C154.049 74.0238 152.902 72.5977 152.902 69.7453V60.8164H149.367V70.0864C149.367 72.5667 149.894 74.3649 151.01 75.543C152.127 76.7211 153.801 77.3102 156.064 77.3102C157.862 77.3102 159.381 76.6591 160.559 75.326V77.0312H164.094V60.8164Z" fill="black"/>
<path d="M169.43 65.5289C170.919 64.4128 172.438 63.8237 174.05 63.8237C175.29 63.8237 176.189 64.1337 176.747 64.7228C177.274 65.3429 177.522 66.242 177.522 67.4511C176.654 67.1721 175.538 67.017 174.205 67.017C171.911 67.017 170.081 67.4511 168.717 68.2882C167.353 69.1563 166.671 70.4274 166.671 72.1326C166.671 73.6828 167.198 74.9229 168.252 75.853C169.306 76.7831 170.732 77.2172 172.531 77.2172C174.67 77.2172 176.344 76.5661 177.522 75.264V77.0312H181.057V67.1721C181.057 65.0638 180.468 63.4516 179.32 62.2735C178.173 61.1264 176.561 60.5373 174.453 60.5373C173.12 60.5373 171.849 60.7543 170.639 61.1884C169.43 61.6224 168.438 62.1805 167.694 62.9246L169.43 65.5289ZM173.306 74.1478C172.376 74.1478 171.663 73.9928 171.136 73.6208C170.577 73.2487 170.329 72.7527 170.329 72.1016C170.329 70.6754 171.725 69.9624 174.577 69.9624C175.662 69.9624 176.654 70.1174 177.522 70.3964V71.9466C176.53 73.4348 175.135 74.1478 173.306 74.1478Z" fill="black"/>
<path d="M184.566 77.0312H188.1V54.3986H184.566V77.0312Z" fill="black"/>
<path d="M199.852 77.0312H203.603V61.9635L210.362 70.6134H211.323L217.927 61.9945V77.0312H221.678V55.3287H218.392L210.92 65.4049L203.169 55.3287H199.852V77.0312Z" fill="black"/>
<path d="M227.53 65.5289C229.018 64.4128 230.538 63.8237 232.15 63.8237C233.39 63.8237 234.289 64.1337 234.847 64.7228C235.374 65.3429 235.622 66.242 235.622 67.4511C234.754 67.1721 233.638 67.017 232.305 67.017C230.011 67.017 228.181 67.4511 226.817 68.2882C225.453 69.1563 224.771 70.4274 224.771 72.1326C224.771 73.6828 225.298 74.9229 226.352 75.853C227.406 76.7831 228.832 77.2172 230.631 77.2172C232.77 77.2172 234.444 76.5661 235.622 75.264V77.0312H239.157V67.1721C239.157 65.0638 238.568 63.4516 237.42 62.2735C236.273 61.1264 234.661 60.5373 232.553 60.5373C231.22 60.5373 229.949 60.7543 228.739 61.1884C227.53 61.6224 226.538 62.1805 225.794 62.9246L227.53 65.5289ZM231.406 74.1478C230.476 74.1478 229.763 73.9928 229.236 73.6208C228.677 73.2487 228.429 72.7527 228.429 72.1016C228.429 70.6754 229.825 69.9624 232.677 69.9624C233.762 69.9624 234.754 70.1174 235.622 70.3964V71.9466C234.63 73.4348 233.235 74.1478 231.406 74.1478Z" fill="black"/>
<path d="M255.005 71.7296C253.982 73.2797 252.618 74.0238 250.943 74.0238C249.331 74.0238 248.029 73.5588 247.037 72.5977C246.045 71.6366 245.58 70.4274 245.58 68.9393C245.58 67.4511 246.045 66.211 246.975 65.2498C247.905 64.3197 249.083 63.8237 250.571 63.8237C252.246 63.8237 253.641 64.5368 254.695 65.9319L257.33 64.1957C256.772 63.1106 255.904 62.2425 254.664 61.5604C253.424 60.8784 252.029 60.5373 250.416 60.5373C247.874 60.5373 245.828 61.3434 244.278 62.9246C242.697 64.5368 241.921 66.521 241.921 68.9393C241.921 71.4815 242.697 73.4968 244.309 75.0159C245.89 76.5661 247.998 77.3102 250.602 77.3102C252.029 77.3102 253.393 76.9692 254.664 76.2871C255.904 75.605 256.865 74.6129 257.516 73.3417L255.005 71.7296Z" fill="black"/>
<path d="M259.658 77.0312H263.193V66.521C263.565 65.7149 264.123 65.0638 264.805 64.5678C265.487 64.1027 266.262 63.8547 267.13 63.8547C268.463 63.8547 269.455 64.1957 270.075 64.8778C270.695 65.5599 271.036 66.676 271.036 68.1642V77.0312H274.571V67.9471C274.571 63.0486 272.339 60.5683 267.874 60.5683C265.89 60.5683 264.34 61.1574 263.193 62.3045V54.3986H259.658V77.0312Z" fill="black"/>
<path d="M278.384 77.0312H281.918V60.9094H278.384V77.0312ZM278.074 56.2899C278.074 56.8479 278.26 57.313 278.632 57.685C279.004 58.057 279.531 58.2121 280.151 58.2121C280.709 58.2121 281.205 58.057 281.608 57.685C281.98 57.313 282.197 56.8479 282.197 56.2899C282.197 55.7938 281.98 55.3597 281.608 54.9877C281.205 54.6157 280.709 54.4296 280.151 54.4296C279.562 54.4296 279.066 54.6157 278.663 54.9567C278.26 55.3287 278.074 55.7628 278.074 56.2899Z" fill="black"/>
<path d="M285.802 77.0312H289.336V66.583C289.677 65.7459 290.204 65.0948 290.917 64.5988C291.599 64.1027 292.405 63.8547 293.273 63.8547C294.638 63.8547 295.63 64.1957 296.281 64.8778C296.901 65.5599 297.242 66.676 297.242 68.1952V77.0312H300.776V67.9161C300.776 63.0176 298.606 60.5683 294.296 60.5683C292.188 60.5683 290.545 61.1884 289.336 62.3665V60.9094H285.802V77.0312Z" fill="black"/>
<path d="M316.555 71.8846C315.501 73.3107 314.044 74.0238 312.246 74.0238C310.85 74.0238 309.703 73.7138 308.804 73.0317C307.874 72.3806 307.347 71.4195 307.223 70.1794H319.19C319.314 69.2183 319.376 68.4742 319.376 67.9161C319.376 65.7149 318.663 63.9477 317.237 62.5836C315.811 61.2194 313.982 60.5373 311.811 60.5373C309.207 60.5373 307.161 61.3434 305.704 62.8936C304.247 64.4748 303.534 66.49 303.534 68.9393C303.534 71.4815 304.309 73.5278 305.89 75.0469C307.471 76.5661 309.579 77.3102 312.184 77.3102C314.912 77.3102 317.082 76.2251 318.725 74.0238L316.555 71.8846ZM311.656 63.7307C312.804 63.7307 313.734 64.0407 314.447 64.5988C315.129 65.1878 315.563 66.0249 315.718 67.1101H307.254C307.471 66.0559 307.967 65.2498 308.742 64.6298C309.486 64.0407 310.478 63.7307 311.656 63.7307Z" fill="black"/>
<path d="M92.4975 46.611H96.2489V38.116H107.658V34.5816H96.2489V28.4429H108.464V24.9085H92.4975V46.611Z" fill="black"/>
<path d="M111.665 46.611H115.199V30.4892H111.665V46.611ZM111.355 25.8696C111.355 26.4277 111.541 26.8928 111.913 27.2648C112.285 27.6368 112.812 27.7919 113.432 27.7919C113.99 27.7919 114.486 27.6368 114.889 27.2648C115.261 26.8928 115.478 26.4277 115.478 25.8696C115.478 25.3736 115.261 24.9395 114.889 24.5675C114.486 24.1955 113.99 24.0094 113.432 24.0094C112.843 24.0094 112.347 24.1955 111.944 24.5365C111.541 24.9085 111.355 25.3426 111.355 25.8696Z" fill="black"/>
<path d="M119.083 46.611H122.617V23.9784H119.083V46.611Z" fill="black"/>
<path d="M138.482 41.4644C137.428 42.8905 135.971 43.6036 134.173 43.6036C132.778 43.6036 131.631 43.2936 130.732 42.6115C129.801 41.9604 129.274 40.9993 129.15 39.7592H141.118C141.242 38.7981 141.304 38.054 141.304 37.4959C141.304 35.2947 140.591 33.5275 139.164 32.1633C137.738 30.7992 135.909 30.1171 133.739 30.1171C131.135 30.1171 129.088 30.9232 127.631 32.4734C126.174 34.0546 125.461 36.0698 125.461 38.5191C125.461 41.0613 126.236 43.1076 127.817 44.6267C129.398 46.1459 131.507 46.89 134.111 46.89C136.839 46.89 139.009 45.8049 140.653 43.6036L138.482 41.4644ZM133.584 33.3105C134.731 33.3105 135.661 33.6205 136.374 34.1786C137.056 34.7676 137.49 35.6047 137.645 36.6899H129.181C129.398 35.6357 129.894 34.8296 130.669 34.2096C131.414 33.6205 132.406 33.3105 133.584 33.3105Z" fill="black"/>
<path d="M156.203 41.3094C155.18 42.8595 153.816 43.6036 152.142 43.6036C150.529 43.6036 149.227 43.1386 148.235 42.1775C147.243 41.2164 146.778 40.0072 146.778 38.5191C146.778 37.0309 147.243 35.7908 148.173 34.8296C149.103 33.8995 150.281 33.4035 151.77 33.4035C153.444 33.4035 154.839 34.1166 155.893 35.5117L158.528 33.7755C157.97 32.6904 157.102 31.8223 155.862 31.1402C154.622 30.4582 153.227 30.1171 151.614 30.1171C149.072 30.1171 147.026 30.9232 145.476 32.5044C143.895 34.1166 143.12 36.1008 143.12 38.5191C143.12 41.0613 143.895 43.0766 145.507 44.5957C147.088 46.1459 149.196 46.89 151.801 46.89C153.227 46.89 154.591 46.5489 155.862 45.8669C157.102 45.1848 158.063 44.1927 158.714 42.9215L156.203 41.3094Z" fill="black"/>
<path d="M159.234 38.5191C159.234 40.9373 160.04 42.9525 161.652 44.5337C163.265 46.1149 165.342 46.89 167.853 46.89C170.395 46.89 172.473 46.1149 174.085 44.5337C175.697 42.9525 176.503 40.9373 176.503 38.5191C176.503 36.1008 175.697 34.0856 174.085 32.5044C172.473 30.9232 170.395 30.1171 167.853 30.1171C165.311 30.1171 163.234 30.9232 161.621 32.5044C160.009 34.0856 159.234 36.1008 159.234 38.5191ZM162.892 38.5191C162.892 36.9689 163.358 35.7287 164.288 34.7986C165.218 33.8685 166.396 33.4035 167.853 33.4035C169.279 33.4035 170.457 33.8995 171.418 34.8296C172.349 35.7597 172.845 36.9999 172.845 38.5191C172.845 40.0692 172.38 41.2784 171.449 42.2085C170.519 43.1386 169.341 43.6036 167.853 43.6036C166.365 43.6036 165.187 43.1386 164.257 42.1775C163.327 41.2164 162.892 40.0072 162.892 38.5191Z" fill="black"/>
<path d="M179.673 46.611H183.207V30.4892H179.673V46.611ZM179.363 25.8696C179.363 26.4277 179.549 26.8928 179.921 27.2648C180.293 27.6368 180.82 27.7919 181.44 27.7919C181.998 27.7919 182.494 27.6368 182.897 27.2648C183.269 26.8928 183.486 26.4277 183.486 25.8696C183.486 25.3736 183.269 24.9395 182.897 24.5675C182.494 24.1955 181.998 24.0094 181.44 24.0094C180.851 24.0094 180.355 24.1955 179.952 24.5365C179.549 24.9085 179.363 25.3426 179.363 25.8696Z" fill="black"/>
<path d="M187.09 46.611H190.625V36.1628C190.966 35.3257 191.493 34.6746 192.206 34.1786C192.888 33.6825 193.694 33.4345 194.562 33.4345C195.926 33.4345 196.919 33.7755 197.57 34.4576C198.19 35.1397 198.531 36.2558 198.531 37.775V46.611H202.065V37.4959C202.065 32.5974 199.895 30.1481 195.585 30.1481C193.477 30.1481 191.834 30.7682 190.625 31.9463V30.4892H187.09V46.611Z" fill="black"/>
<defs>
<linearGradient id="paint0_linear_149_113" x1="0.556558" y1="66.9821" x2="66.1095" y2="66.9821" gradientUnits="userSpaceOnUse">
<stop offset="0.53" stop-color="#5A92ED"/>
<stop offset="1" stop-color="#72EA9A"/>
</linearGradient>
<linearGradient id="paint1_linear_149_113" x1="65.7219" y1="44.5628" x2="0.556559" y2="44.5628" gradientUnits="userSpaceOnUse">
<stop stop-color="#72EA9A"/>
<stop offset="0.43" stop-color="#5D8FE6"/>
</linearGradient>
<linearGradient id="paint2_linear_149_113" x1="13.5199" y1="77.9364" x2="0.646988" y2="55.6527" gradientUnits="userSpaceOnUse">
<stop stop-color="#5A92ED"/>
<stop offset="1" stop-color="#72EA9A"/>
</linearGradient>
<linearGradient id="paint3_linear_149_113" x1="65.7219" y1="19.4888" x2="0.556559" y2="19.4888" gradientUnits="userSpaceOnUse">
<stop offset="0.62" stop-color="#5C99E9"/>
<stop offset="1" stop-color="#72EA9A"/>
</linearGradient>
</defs>
</svg>
