<svg width="98" height="149" viewBox="0 0 98 149" fill="none" xmlns="http://www.w3.org/2000/svg">
<path d="M20.5269 71.4365L0.553406 82.1568L78.4529 126.371L97.8702 115.449L20.5269 71.4365Z" fill="url(#paint0_linear_149_94)"/>
<path d="M39.8004 104.384L20.4215 93.3277V93.3469L1.13837 82.3677V104.355H1.16713L78.4721 148.367H78.5009V126.38L39.8004 104.384Z" fill="#1A3A96"/>
<path d="M97.8894 115.449L78.4721 126.38V148.367L97.8894 137.436V115.449Z" fill="#72EA9A"/>
<path d="M77.9063 38.1538L97.3141 49.0467L19.9516 93.0689L0.553406 82.1665L77.9063 38.1538Z" fill="url(#paint1_linear_149_94)"/>
<path d="M19.9516 93.088V115.056L97.2853 71.0337H97.3141V49.0466L19.9516 93.088Z" fill="#1A3A96"/>
<path d="M0.553406 82.1664L19.942 93.0688V115.123L0.553406 104.153V82.1664Z" fill="url(#paint2_linear_149_94)"/>
<path d="M77.8967 0.920512L97.3141 11.8517L19.9516 55.8644L0.553406 44.9331L77.8967 0.920512Z" fill="url(#paint3_linear_149_94)"/>
<path d="M97.2853 11.8515L19.9516 55.8642V77.8513L97.2853 33.8387H97.3141V11.8515H97.2853Z" fill="#1A3A96"/>
<path d="M0.553406 44.9329L19.9324 55.8642V77.8513L0.553406 66.9201V44.9329Z" fill="#72EA9A"/>
<defs>
<linearGradient id="paint0_linear_149_94" x1="0.572583" y1="98.8989" x2="97.8894" y2="98.8989" gradientUnits="userSpaceOnUse">
<stop offset="0.53" stop-color="#5A92ED"/>
<stop offset="1" stop-color="#72EA9A"/>
</linearGradient>
<linearGradient id="paint1_linear_149_94" x1="97.3141" y1="65.6162" x2="0.572584" y2="65.6162" gradientUnits="userSpaceOnUse">
<stop stop-color="#72EA9A"/>
<stop offset="0.43" stop-color="#5D8FE6"/>
</linearGradient>
<linearGradient id="paint2_linear_149_94" x1="19.8173" y1="115.161" x2="0.706836" y2="82.08" gradientUnits="userSpaceOnUse">
<stop stop-color="#5A92ED"/>
<stop offset="1" stop-color="#72EA9A"/>
</linearGradient>
<linearGradient id="paint3_linear_149_94" x1="97.3141" y1="28.3924" x2="0.572584" y2="28.3924" gradientUnits="userSpaceOnUse">
<stop offset="0.62" stop-color="#5C99E9"/>
<stop offset="1" stop-color="#72EA9A"/>
</linearGradient>
</defs>
</svg>
