<?xml version="1.0" standalone="no"?>
<!DOCTYPE svg PUBLIC "-//W3C//DTD SVG 20010904//EN"
 "http://www.w3.org/TR/2001/REC-SVG-20010904/DTD/svg10.dtd">
<svg version="1.0" xmlns="http://www.w3.org/2000/svg"
 width="591.000000pt" height="591.000000pt" viewBox="0 0 591.000000 591.000000"
 preserveAspectRatio="xMidYMid meet">
<metadata>
Created by potrace 1.14, written by Peter Selinger 2001-2017
</metadata>
<g transform="translate(0.000000,591.000000) scale(0.100000,-0.100000)"
fill="#000000" stroke="none">
<path d="M4085 5857 c-11 -7 -31 -19 -45 -28 -14 -9 -65 -38 -115 -64 -49 -27
-113 -64 -142 -82 -29 -18 -54 -33 -57 -33 -2 0 -44 -23 -93 -51 -48 -28 -106
-61 -128 -73 -22 -13 -141 -81 -265 -151 -124 -70 -238 -136 -255 -145 -124
-70 -342 -195 -455 -260 -74 -42 -155 -88 -180 -102 -25 -14 -94 -54 -155 -88
-60 -35 -135 -77 -165 -93 -30 -16 -62 -36 -70 -43 -8 -7 -18 -13 -23 -13 -4
0 -49 -24 -100 -54 -50 -30 -249 -143 -442 -252 -192 -109 -355 -204 -361
-211 -8 -10 -11 -144 -11 -446 l0 -433 61 -37 c34 -21 65 -38 70 -38 5 0 17
-6 25 -14 9 -7 43 -28 76 -45 33 -18 67 -36 75 -41 63 -40 211 -120 222 -120
21 -1 -13 -23 -196 -126 -94 -54 -207 -118 -251 -144 l-80 -47 -1 -439 -1
-440 175 -99 c97 -55 225 -128 285 -163 60 -34 111 -62 112 -62 2 0 36 -19 77
-43 40 -24 107 -61 148 -83 41 -21 76 -42 78 -46 2 -5 7 -8 12 -8 4 0 63 -31
130 -70 67 -38 123 -70 125 -70 2 0 32 -17 66 -38 35 -21 89 -52 119 -69 30
-17 215 -121 410 -233 195 -112 380 -216 410 -233 30 -17 67 -38 82 -49 14
-10 28 -18 31 -18 3 0 34 -16 69 -36 34 -20 88 -50 118 -67 30 -16 67 -38 82
-49 14 -10 28 -18 30 -18 2 0 119 -65 259 -145 305 -174 294 -172 433 -93 118
66 139 78 211 118 33 18 76 42 95 53 19 11 87 49 150 85 63 35 127 71 143 80
l27 16 -2 450 -3 449 -245 140 c-494 282 -541 308 -601 341 -236 131 -699 400
-699 407 0 5 4 9 10 9 5 0 33 14 62 31 29 18 69 41 88 51 19 11 116 66 215
123 214 122 685 390 735 418 60 33 425 241 429 243 2 2 3 199 3 439 0 430 -3
465 -32 465 -4 0 -52 25 -106 56 -55 31 -122 69 -150 85 -131 71 -234 131
-238 138 -3 4 14 18 37 31 51 27 94 51 167 93 31 18 115 66 188 107 l132 75 1
80 c0 44 0 242 1 439 l0 359 -44 27 c-23 15 -72 43 -108 62 -36 20 -114 64
-175 99 -60 34 -126 71 -145 81 -19 11 -44 25 -55 31 -81 48 -245 137 -252
136 -4 0 -17 -6 -28 -12z"/>
</g>
</svg>
